<?xml version="1.0" encoding="UTF-8"?>
<svg version="1.1" xmlns="http://www.w3.org/2000/svg" width="300" height="300">
<path d="M0 0 C5.58906188 4.78917802 8.03440058 9.44380762 10.03125 16.47265625 C10.25006836 17.23175293 10.46888672 17.99084961 10.69433594 18.77294922 C14.01777955 30.40009279 16.84198479 41.37165173 16.59375 53.53515625 C17.86605469 53.52162109 17.86605469 53.52162109 19.1640625 53.5078125 C28.26031061 53.73771767 38.80689892 55.74830517 45.59375 62.53515625 C48.86907727 62.9167111 52.14110614 63.25532431 55.42773438 63.52148438 C61.82896025 64.18938698 65.68489014 66.58084735 70.21875 71.22265625 C77.22498373 80.1663051 78.93311446 90.88000099 78.78125 101.91015625 C78.7802832 103.23273438 78.7802832 103.23273438 78.77929688 104.58203125 C78.76178308 107.23634402 78.69125999 109.8826378 78.59375 112.53515625 C78.55858276 113.78051147 78.55858276 113.78051147 78.52270508 115.05102539 C78.11750622 121.85501738 75.92415402 127.16481971 72.90625 133.22265625 C72.48408203 134.12048828 72.06191406 135.01832031 71.62695312 135.94335938 C69.22078604 140.8972328 66.66029488 145.04537927 62.87817383 149.0612793 C60.93825758 151.28733411 59.86108216 153.88527992 58.59375 156.53515625 C57.90152344 157.28410156 57.20929688 158.03304687 56.49609375 158.8046875 C54.08143889 162.27048574 54.29679966 163.95824394 54.78125 168.09765625 C54.95720703 169.77021484 54.95720703 169.77021484 55.13671875 171.4765625 C55.51483142 174.38411042 55.51483142 174.38411042 56.12890625 176.57421875 C57.81182763 183.67360139 57.36915393 191.28621181 53.59375 197.53515625 C51.29737412 200.24905502 49.80377658 201.43149664 46.22265625 201.73828125 C44.51221774 201.7281152 42.80136743 201.67684663 41.09375 201.578125 C38.42309916 201.53222319 36.21015562 202.00542997 33.59375 202.53515625 C13.97120242 205.25732975 -5.68241629 205.83871777 -25.46875 205.84765625 C-27.07307388 205.85262619 -27.07307388 205.85262619 -28.70980835 205.85769653 C-70.0685024 205.93346903 -70.0685024 205.93346903 -79.6640625 197.56640625 C-85.43611713 191.116661 -85.43611713 191.116661 -85.36108398 187.14355469 C-85.29219971 186.15387695 -85.22331543 185.16419922 -85.15234375 184.14453125 C-84.19804068 166.85165294 -84.19804068 166.85165294 -92.52734375 152.4296875 C-93.48112377 151.4590551 -94.44074287 150.49412422 -95.40625 149.53515625 C-97.2321416 147.63067716 -99.03750851 145.70844431 -100.84375 143.78515625 C-101.66488281 142.91761719 -102.48601562 142.05007812 -103.33203125 141.15625 C-106.38769353 137.29495172 -107.59308986 133.3411412 -108.40625 128.53515625 C-112.39651847 130.49528813 -116.33060464 132.45714392 -120.15625 134.72265625 C-125.87716924 137.9131689 -131.93239213 138.65133864 -138.40625 137.53515625 C-142.71020771 134.95000935 -145.64054375 131.68371563 -148.40625 127.53515625 C-150.67799733 104.86550922 -140.66403518 85.3526283 -127.40625 67.53515625 C-124.55352168 64.05968146 -121.689143 60.61371981 -118.40625 57.53515625 C-117.74625 57.53515625 -117.08625 57.53515625 -116.40625 57.53515625 C-116.15875 56.77203125 -115.91125 56.00890625 -115.65625 55.22265625 C-114.19944388 52.0905231 -113.51151637 51.04797833 -110.40625 49.53515625 C-105.96871372 48.85373682 -102.73370842 48.73106134 -98.8203125 51.1015625 C-95.88235988 54.06328496 -94.54284271 57.03587544 -93.21875 60.91015625 C-92.96319336 61.63678467 -92.70763672 62.36341309 -92.44433594 63.11206055 C-90.10568114 70.35931214 -89.43200407 77.64906235 -88.98754883 85.22216797 C-88.93493896 86.11564941 -88.8823291 87.00913086 -88.828125 87.9296875 C-88.77543457 89.11848511 -88.77543457 89.11848511 -88.72167969 90.33129883 C-87.98460414 95.48112928 -85.35339503 97.41898912 -81.40625 100.53515625 C-81.40625 101.19515625 -81.40625 101.85515625 -81.40625 102.53515625 C-80.74625 102.53515625 -80.08625 102.53515625 -79.40625 102.53515625 C-79.41785156 101.60316406 -79.42945312 100.67117187 -79.44140625 99.7109375 C-79.49395336 92.28678146 -79.29685891 85.01414877 -78.61328125 77.61328125 C-78.40758741 74.55504075 -78.47508271 71.59595389 -78.59375 68.53515625 C-78.59375 65.23431198 -78.43972378 63.61166774 -77.09375 60.53515625 C-72.94007856 57.44405192 -68.38749475 56.67655405 -63.40625 55.53515625 C-62.29765625 55.19097656 -61.1890625 54.84679687 -60.046875 54.4921875 C-56.12846397 53.4621331 -52.51050108 53.1247625 -48.46875 52.91015625 C-47.44297852 52.85214844 -47.44297852 52.85214844 -46.39648438 52.79296875 C-44.73345487 52.69993213 -43.06989153 52.61651838 -41.40625 52.53515625 C-41.51066406 51.70951172 -41.51066406 51.70951172 -41.6171875 50.8671875 C-42.30401204 40.31952497 -38.63762609 30.4328672 -35.40625 20.53515625 C-35.00019531 19.28863281 -34.59414062 18.04210937 -34.17578125 16.7578125 C-31.35546745 9.12467652 -27.5969098 4.18286895 -20.27734375 0.44921875 C-13.98730138 -2.00378525 -6.02399786 -3.66720649 0 0 Z " fill="#752918" transform="translate(195.40625,58.46484375)"/>
<path d="M0 0 C5.58906188 4.78917802 8.03440058 9.44380762 10.03125 16.47265625 C10.25006836 17.23175293 10.46888672 17.99084961 10.69433594 18.77294922 C14.01777955 30.40009279 16.84198479 41.37165173 16.59375 53.53515625 C17.86605469 53.52162109 17.86605469 53.52162109 19.1640625 53.5078125 C28.26031061 53.73771767 38.80689892 55.74830517 45.59375 62.53515625 C48.86907727 62.9167111 52.14110614 63.25532431 55.42773438 63.52148438 C61.82896025 64.18938698 65.68489014 66.58084735 70.21875 71.22265625 C77.22498373 80.1663051 78.93311446 90.88000099 78.78125 101.91015625 C78.7802832 103.23273438 78.7802832 103.23273438 78.77929688 104.58203125 C78.76178308 107.23634402 78.69125999 109.8826378 78.59375 112.53515625 C78.55858276 113.78051147 78.55858276 113.78051147 78.52270508 115.05102539 C78.11750622 121.85501738 75.92415402 127.16481971 72.90625 133.22265625 C72.48408203 134.12048828 72.06191406 135.01832031 71.62695312 135.94335938 C69.22078604 140.8972328 66.66029488 145.04537927 62.87817383 149.0612793 C60.93825758 151.28733411 59.86108216 153.88527992 58.59375 156.53515625 C57.90152344 157.28410156 57.20929688 158.03304687 56.49609375 158.8046875 C54.08143889 162.27048574 54.29679966 163.95824394 54.78125 168.09765625 C54.95720703 169.77021484 54.95720703 169.77021484 55.13671875 171.4765625 C55.51483142 174.38411042 55.51483142 174.38411042 56.12890625 176.57421875 C57.81182763 183.67360139 57.36915393 191.28621181 53.59375 197.53515625 C51.29737412 200.24905502 49.80377658 201.43149664 46.22265625 201.73828125 C44.51221774 201.7281152 42.80136743 201.67684663 41.09375 201.578125 C38.42309916 201.53222319 36.21015562 202.00542997 33.59375 202.53515625 C13.97120242 205.25732975 -5.68241629 205.83871777 -25.46875 205.84765625 C-27.07307388 205.85262619 -27.07307388 205.85262619 -28.70980835 205.85769653 C-70.0685024 205.93346903 -70.0685024 205.93346903 -79.6640625 197.56640625 C-85.43611713 191.116661 -85.43611713 191.116661 -85.36108398 187.14355469 C-85.29219971 186.15387695 -85.22331543 185.16419922 -85.15234375 184.14453125 C-84.19804068 166.85165294 -84.19804068 166.85165294 -92.52734375 152.4296875 C-93.48112377 151.4590551 -94.44074287 150.49412422 -95.40625 149.53515625 C-97.2321416 147.63067716 -99.03750851 145.70844431 -100.84375 143.78515625 C-101.66488281 142.91761719 -102.48601562 142.05007812 -103.33203125 141.15625 C-106.38769353 137.29495172 -107.59308986 133.3411412 -108.40625 128.53515625 C-112.39651847 130.49528813 -116.33060464 132.45714392 -120.15625 134.72265625 C-125.87716924 137.9131689 -131.93239213 138.65133864 -138.40625 137.53515625 C-142.71020771 134.95000935 -145.64054375 131.68371563 -148.40625 127.53515625 C-150.67799733 104.86550922 -140.66403518 85.3526283 -127.40625 67.53515625 C-124.55352168 64.05968146 -121.689143 60.61371981 -118.40625 57.53515625 C-117.74625 57.53515625 -117.08625 57.53515625 -116.40625 57.53515625 C-116.15875 56.77203125 -115.91125 56.00890625 -115.65625 55.22265625 C-114.19944388 52.0905231 -113.51151637 51.04797833 -110.40625 49.53515625 C-105.96871372 48.85373682 -102.73370842 48.73106134 -98.8203125 51.1015625 C-95.88235988 54.06328496 -94.54284271 57.03587544 -93.21875 60.91015625 C-92.96319336 61.63678467 -92.70763672 62.36341309 -92.44433594 63.11206055 C-90.10568114 70.35931214 -89.43200407 77.64906235 -88.98754883 85.22216797 C-88.93493896 86.11564941 -88.8823291 87.00913086 -88.828125 87.9296875 C-88.77543457 89.11848511 -88.77543457 89.11848511 -88.72167969 90.33129883 C-87.98460414 95.48112928 -85.35339503 97.41898912 -81.40625 100.53515625 C-81.40625 101.19515625 -81.40625 101.85515625 -81.40625 102.53515625 C-80.74625 102.53515625 -80.08625 102.53515625 -79.40625 102.53515625 C-79.41785156 101.60316406 -79.42945312 100.67117187 -79.44140625 99.7109375 C-79.49395336 92.28678146 -79.29685891 85.01414877 -78.61328125 77.61328125 C-78.40758741 74.55504075 -78.47508271 71.59595389 -78.59375 68.53515625 C-78.59375 65.23431198 -78.43972378 63.61166774 -77.09375 60.53515625 C-72.94007856 57.44405192 -68.38749475 56.67655405 -63.40625 55.53515625 C-62.29765625 55.19097656 -61.1890625 54.84679687 -60.046875 54.4921875 C-56.12846397 53.4621331 -52.51050108 53.1247625 -48.46875 52.91015625 C-47.44297852 52.85214844 -47.44297852 52.85214844 -46.39648438 52.79296875 C-44.73345487 52.69993213 -43.06989153 52.61651838 -41.40625 52.53515625 C-41.51066406 51.70951172 -41.51066406 51.70951172 -41.6171875 50.8671875 C-42.30401204 40.31952497 -38.63762609 30.4328672 -35.40625 20.53515625 C-35.00019531 19.28863281 -34.59414062 18.04210937 -34.17578125 16.7578125 C-31.35546745 9.12467652 -27.5969098 4.18286895 -20.27734375 0.44921875 C-13.98730138 -2.00378525 -6.02399786 -3.66720649 0 0 Z M-20.40625 13.53515625 C-24.02070815 19.92143813 -26.1667629 26.4909497 -28.15625 33.53515625 C-28.46699463 34.63206787 -28.77773926 35.72897949 -29.09790039 36.85913086 C-31.44401509 45.62923826 -32.25515275 53.49366822 -31.40625 62.53515625 C-32.086875 62.50035156 -32.7675 62.46554688 -33.46875 62.4296875 C-39.75138391 62.25424161 -45.62711224 62.73981198 -51.78125 63.91015625 C-52.44640625 64.03624268 -53.1115625 64.1623291 -53.796875 64.29223633 C-57.78184933 65.09393234 -61.5785763 66.17236221 -65.40625 67.53515625 C-68.99532525 86.36583774 -69.56247438 105.42977374 -70.40625 124.53515625 C-97.1645441 104.59900665 -97.1645441 104.59900665 -98.78320312 94.0871582 C-99.12986988 90.25846953 -99.3541871 86.42732495 -99.578125 82.58984375 C-99.96268466 77.16163621 -100.51444825 73.18718515 -103.40625 68.53515625 C-104.06625 68.53515625 -104.72625 68.53515625 -105.40625 68.53515625 C-105.73625 67.87515625 -106.06625 67.21515625 -106.40625 66.53515625 C-114.59813393 68.29055995 -118.43689174 73.521879 -122.96875 80.19140625 C-123.7908795 81.46649875 -124.60317058 82.74798056 -125.40625 84.03515625 C-126.04916992 85.06358643 -126.04916992 85.06358643 -126.70507812 86.11279297 C-130.8492088 92.9399826 -133.77131017 100.00421336 -136.40625 107.53515625 C-136.78523438 108.56640625 -137.16421875 109.59765625 -137.5546875 110.66015625 C-138.37484121 113.42911557 -138.61815114 115.54241878 -138.53125 118.41015625 C-138.51320313 119.19132812 -138.49515625 119.9725 -138.4765625 120.77734375 C-138.45335937 121.35742188 -138.43015625 121.9375 -138.40625 122.53515625 C-134.64130999 123.79013625 -131.76127986 123.13582991 -127.96875 122.41015625 C-127.25952393 122.27544922 -126.55029785 122.14074219 -125.81958008 122.00195312 C-118.31685617 120.46985523 -109.62201634 118.49603207 -104.40625 112.53515625 C-104.179375 113.33953125 -103.9525 114.14390625 -103.71875 114.97265625 C-100.89080419 122.64850916 -96.33669605 129.35705106 -91.59375 135.97265625 C-91.07184082 136.70693848 -90.54993164 137.4412207 -90.01220703 138.19775391 C-86.46906035 143.14769012 -82.80638885 147.95777291 -78.9296875 152.65234375 C-75.96492445 156.3164868 -75.16774234 158.21219119 -75.28125 162.8671875 C-75.29671875 163.91326172 -75.3121875 164.95933594 -75.328125 166.03710938 C-75.37993194 168.23242841 -75.43201231 170.42774102 -75.484375 172.62304688 C-75.72844259 180.31391344 -75.72844259 180.31391344 -73.40625 187.53515625 C-61.52124516 197.17089615 -40.23003173 195.00765828 -26.03125 194.91015625 C-24.3443103 194.90566971 -24.3443103 194.90566971 -22.62329102 194.90109253 C-5.11184523 194.84646653 12.13724875 194.06745149 29.515625 191.88720703 C33.49048462 191.43259507 37.47155396 191.19221998 41.46679688 190.99194336 C43.98015837 190.71065851 43.98015837 190.71065851 45.59375 187.53515625 C45.74525652 184.2967771 45.74525652 184.2967771 45.5 180.6015625 C45.47023071 179.92721664 45.44046143 179.25287079 45.40979004 178.55809021 C45.28232038 175.67679692 45.13022836 172.7969292 44.97998047 169.91674805 C44.87373049 167.81199785 44.78031117 165.70694126 44.6875 163.6015625 C44.62240234 162.34287354 44.55730469 161.08418457 44.49023438 159.78735352 C44.59174909 156.59801978 45.04405578 155.22492891 46.59375 152.53515625 C46.59375 151.54515625 46.59375 150.55515625 46.59375 149.53515625 C47.91375 149.53515625 49.23375 149.53515625 50.59375 149.53515625 C52.31142682 145.55326907 54.00412341 141.57036222 55.59375 137.53515625 C56.25375 137.53515625 56.91375 137.53515625 57.59375 137.53515625 C57.59375 136.21515625 57.59375 134.89515625 57.59375 133.53515625 C58.25375 133.53515625 58.91375 133.53515625 59.59375 133.53515625 C68.45464726 123.59223523 68.38122349 109.27597617 67.76660156 96.74853516 C67.18134229 89.25424054 65.48247808 82.34052084 60.59375 76.53515625 C55.78121435 73.32679915 51.30649747 73.23966931 45.59375 73.53515625 C43.19489606 74.07291103 40.93563828 74.77045804 38.59375 75.53515625 C38.3771875 74.45234375 38.3771875 74.45234375 38.15625 73.34765625 C35.77394098 69.05950002 31.90250643 67.62522467 27.59375 65.53515625 C26.93375 65.20515625 26.27375 64.87515625 25.59375 64.53515625 C24.22168479 64.31824233 22.84235728 64.14592462 21.4609375 64 C20.65527344 63.91298828 19.84960938 63.82597656 19.01953125 63.73632812 C17.75689453 63.60581055 17.75689453 63.60581055 16.46875 63.47265625 C15.61925781 63.38177734 14.76976562 63.29089844 13.89453125 63.19726562 C11.7946355 62.97311945 9.69423707 62.75369177 7.59375 62.53515625 C7.52381836 61.84591064 7.45388672 61.15666504 7.38183594 60.4465332 C5.48770733 42.16789141 5.48770733 42.16789141 0.59375 24.53515625 C-0.1673772 22.10110784 -0.91744824 19.66357374 -1.65625 17.22265625 C-1.99140625 16.13339844 -2.3265625 15.04414062 -2.671875 13.921875 C-2.91421875 13.13425781 -3.1565625 12.34664062 -3.40625 11.53515625 C-9.62462518 10.21481632 -15.27848007 9.10032821 -20.40625 13.53515625 Z " fill="#FDFDFD" transform="translate(195.40625,58.46484375)"/>
<path d="M0 0 C0.495 0.99 0.495 0.99 1 2 C1.66 2 2.32 2 3 2 C6.87804837 8.23632103 6.69534275 14.55578229 6.99609375 21.68164062 C7.61220711 31.20518009 11.17007359 37.83957378 18.0859375 44.359375 C21.26291665 47.08249999 24.58785619 49.58047984 28 52 C27.67 53.32 27.34 54.64 27 56 C27.99 56.33 28.98 56.66 30 57 C30 57.99 30 58.98 30 60 C30.99 60 31.98 60 33 60 C34.485 60.99 34.485 60.99 36 62 C36 62.66 36 63.32 36 64 C36.58136719 64.14050781 37.16273437 64.28101563 37.76171875 64.42578125 C43.51016724 65.90051411 46.73389806 67.07659226 50.0390625 72.09765625 C53.89852311 79.19956904 57.01441625 85.92791875 55.375 94.125 C53.14658582 98.78441146 50.34316054 102.10455964 46 105 C42.62514687 105 40.10415819 104.91967291 37.43359375 102.6953125 C35.11991692 100.0454604 34 98.57449447 34 95 C34.99 94.67 35.98 94.34 37 94 C35.02 93.505 35.02 93.505 33 93 C33 91.02 33 89.04 33 87 C32.23864746 87.06944824 31.47729492 87.13889648 30.69287109 87.21044922 C28 87 28 87 26.35009766 85.59814453 C25.63926025 84.62530518 25.63926025 84.62530518 24.9140625 83.6328125 C24.37918213 82.91697998 23.84430176 82.20114746 23.29321289 81.46362305 C22.74270264 80.69187744 22.19219238 79.92013184 21.625 79.125 C21.05064209 78.34358643 20.47628418 77.56217285 19.88452148 76.75708008 C18.74909305 75.20657643 17.62086827 73.65076765 16.50048828 72.08935547 C15.28839237 70.40157206 14.05215688 68.73114049 12.80859375 67.06640625 C2 52.34060403 2 52.34060403 2 46 C1.48179688 46.60585937 0.96359375 47.21171875 0.4296875 47.8359375 C-7.09569508 54.53860945 -21.24470991 56.39210358 -31 57 C-32 56 -32 56 -32.25390625 52.01953125 C-32.18887498 46.7974169 -30.82766379 42.51488602 -28.9375 37.6875 C-28.62095459 36.85863281 -28.30440918 36.02976563 -27.97827148 35.17578125 C-23.17560999 22.96163446 -15.96919523 9.77854235 -6 1 C-3.3125 0.8125 -3.3125 0.8125 -1 1 C-0.67 0.67 -0.34 0.34 0 0 Z " fill="#692113" transform="translate(89,125)"/>
<path d="M0 0 C0.66 0.33 1.32 0.66 2 1 C1.67 4.96 1.34 8.92 1 13 C0.01 13.33 -0.98 13.66 -2 14 C-2.66 13.67 -3.32 13.34 -4 13 C-4 13.99 -4 14.98 -4 16 C-2.68 16.33 -1.36 16.66 0 17 C0 18.32 0 19.64 0 21 C1.98 21.33 3.96 21.66 6 22 C6 22.66 6 23.32 6 24 C2.21812119 25.83691257 0.05431692 26.15837626 -4 25 C-4 25.99 -4 26.98 -4 28 C-3.34 28.33 -2.68 28.66 -2 29 C-2 29.66 -2 30.32 -2 31 C-1.34 31 -0.68 31 0 31 C0.33 32.32 0.66 33.64 1 35 C-0.485 35.495 -0.485 35.495 -2 36 C-2 40.95 -2 45.9 -2 51 C-2.66 51 -3.32 51 -4 51 C-3.67 51.99 -3.34 52.98 -3 54 C-3.66 54 -4.32 54 -5 54 C-4.80083984 54.88751953 -4.80083984 54.88751953 -4.59765625 55.79296875 C-4.23299913 57.42460971 -3.87384429 59.05748785 -3.51953125 60.69140625 C-3.14670971 62.34807941 -2.71650542 63.99223101 -2.25 65.625 C-1.89064225 69.03889865 -2.92682943 71.78048829 -4 75 C-5.32 75 -6.64 75 -8 75 C-6.35 75.33 -4.7 75.66 -3 76 C-3.33 76.66 -3.66 77.32 -4 78 C-5.32 78 -6.64 78 -8 78 C-8 78.66 -8 79.32 -8 80 C-5.03 80.33 -2.06 80.66 1 81 C1.99 79.515 1.99 79.515 3 78 C5.4375 78.375 5.4375 78.375 8 79 C9.35439668 81.70879335 9.06501451 84.00933268 9 87 C8.01 87.33 7.02 87.66 6 88 C13.90664083 87.55593205 13.90664083 87.55593205 21.625 85.9375 C26.05174711 84.70784803 30.42953012 84.43182458 35 85 C35.66 85.66 36.32 86.32 37 87 C28.20205711 91.10570668 17.60526822 92 8 92 C7.31292445 94.49064888 7 96.37886292 7 99 C7.556875 98.814375 8.11375 98.62875 8.6875 98.4375 C11 98 11 98 13.25 98.5 C17.03831179 99.18878396 20.19881017 98.57984252 24 98 C24 100 24 100 22.77148438 101.59521484 C20.58774519 103.32691761 19.41787979 103.40465724 16.65625 103.4765625 C15.82222656 103.5075 14.98820312 103.5384375 14.12890625 103.5703125 C13.26136719 103.58835937 12.39382812 103.60640625 11.5 103.625 C9.78113902 103.67608056 8.06237655 103.73062388 6.34375 103.7890625 C5.58255859 103.80662598 4.82136719 103.82418945 4.03710938 103.84228516 C1.79758536 103.93299627 1.79758536 103.93299627 -1 105 C-2.66788048 104.67279428 -4.33434184 104.33833681 -6 104 C-9.5466488 103.97126558 -13.0797029 104.06464717 -16.625 104.16015625 C-19.91467537 104.00404897 -22.05910266 103.42031974 -25 102 C-24.67 101.01 -24.34 100.02 -24 99 C-19.31561286 97.9717199 -15.71274692 98.2811064 -11 99 C-7.99772734 99.08632733 -5.00261334 99.06127782 -2 99 C-1.34 97.35 -0.68 95.7 0 94 C-1.32 94 -2.64 94 -4 94 C-4 94.66 -4 95.32 -4 96 C-5.65 95.67 -7.3 95.34 -9 95 C-9 94.01 -9 93.02 -9 92 C-9.556875 92.33 -10.11375 92.66 -10.6875 93 C-13.30284522 94.1309601 -15.1806646 94.15662974 -18 94 C-18.33 93.34 -18.66 92.68 -19 92 C-17.6875 89.375 -17.6875 89.375 -16 87 C-15.34 87 -14.68 87 -14 87 C-14 86.34 -14 85.68 -14 85 C-14.66 85 -15.32 85 -16 85 C-15.37240135 82.07120629 -14.41377341 79.63904371 -13 77 C-14.485 76.505 -14.485 76.505 -16 76 C-15.34 72.7 -14.68 69.4 -14 66 C-14.66 66 -15.32 66 -16 66 C-15.42655063 63.13275314 -15.1385485 62.1385485 -13 60 C-13 59.34 -13 58.68 -13 58 C-13.99 58 -14.98 58 -16 58 C-16 57.01 -16 56.02 -16 55 C-16.99 54.67 -17.98 54.34 -19 54 C-18.484375 53.236875 -17.96875 52.47375 -17.4375 51.6875 C-16.963125 50.800625 -16.48875 49.91375 -16 49 C-16.495 47.515 -16.495 47.515 -17 46 C-16.67 45.01 -16.34 44.02 -16 43 C-15.01 43 -14.02 43 -13 43 C-12.7763932 40.0745356 -12.7763932 40.0745356 -14 38 C-15.485 37.505 -15.485 37.505 -17 37 C-17.6875 34.9375 -17.6875 34.9375 -18 33 C-18.66 33 -19.32 33 -20 33 C-20 32.01 -20 31.02 -20 30 C-19.34 30 -18.68 30 -18 30 C-17.67 29.34 -17.34 28.68 -17 28 C-17 28.66 -17 29.32 -17 30 C-16.34 30 -15.68 30 -15 30 C-15 28.02 -15 26.04 -15 24 C-15.99 24 -16.98 24 -18 24 C-18.33 23.34 -18.66 22.68 -19 22 C-19.680625 22.04125 -20.36125 22.0825 -21.0625 22.125 C-24.59924168 21.97450035 -27.63323033 21.05624147 -31 20 C-29.68 18.68 -28.36 17.36 -27 16 C-26.0925 16.33 -25.185 16.66 -24.25 17 C-20.92954193 18.19605723 -20.92954193 18.19605723 -17 18 C-16.67 17.01 -16.34 16.02 -16 15 C-15.01 14.34 -14.02 13.68 -13 13 C-13.33 11.35 -13.66 9.7 -14 8 C-12.68 7.34 -11.36 6.68 -10 6 C-10 5.01 -10 4.02 -10 3 C-9.01 3 -8.02 3 -7 3 C-6.67 5.31 -6.34 7.62 -6 10 C-5.01 9.67 -4.02 9.34 -3 9 C-3 8.01 -3 7.02 -3 6 C-2.34 5.67 -1.68 5.34 -1 5 C-1 4.34 -1 3.68 -1 3 C-1.66 2.34 -2.32 1.68 -3 1 C-2.01 0.67 -1.02 0.34 0 0 Z " fill="#924025" transform="translate(172,136)"/>
<path d="M0 0 C4.50380188 5.87730175 4.58361803 11.01951448 4.4375 18.25 C4.44458984 19.22324219 4.45167969 20.19648438 4.45898438 21.19921875 C4.39862674 28.19141916 3.13691311 34.35399672 1 41 C0.34 41 -0.32 41 -1 41 C-1.185625 41.78375 -1.37125 42.5675 -1.5625 43.375 C-4.16960401 49.94943619 -8.77754502 55.37549719 -13 61 C-14.26613506 46.21736638 -15.25217276 31.46900844 -15.65795898 16.63549805 C-15.68962158 15.56211182 -15.72128418 14.48872559 -15.75390625 13.3828125 C-15.77783447 12.43809082 -15.8017627 11.49336914 -15.82641602 10.52001953 C-15.98495481 8.21841977 -16.35645367 6.20913082 -17 4 C-11.08788311 0.04490328 -7.00099739 -2.37321946 0 0 Z " fill="#FCFCFB" transform="translate(251,142)"/>
<path d="M0 0 C0.99 0.33 1.98 0.66 3 1 C4.05393887 9.51941879 3.79255043 17.27050344 2.5625 25.75 C2.41490234 26.84054688 2.26730469 27.93109375 2.11523438 29.0546875 C1.75492498 31.70470496 1.37911685 34.35260774 1 37 C7.6 37.33 14.2 37.66 21 38 C21.495 40.475 21.495 40.475 22 43 C20.41448679 44.58551321 18.7900314 44.13515844 16.59130859 44.14526367 C15.65298187 44.15164352 14.71465515 44.15802338 13.74789429 44.16459656 C12.21366318 44.16626579 12.21366318 44.16626579 10.6484375 44.16796875 C9.60104401 44.17129715 8.55365051 44.17462555 7.47451782 44.17805481 C5.25010621 44.18313092 3.02568693 44.18546293 0.80126953 44.18530273 C-2.58964811 44.18747733 -5.98023426 44.2055929 -9.37109375 44.22460938 C-11.53124889 44.22754559 -13.69140557 44.22952886 -15.8515625 44.23046875 C-17.36757553 44.24124702 -17.36757553 44.24124702 -18.91421509 44.25224304 C-24.34310302 44.23479425 -28.86847054 43.80421394 -34 42 C-34 41.01 -34 40.02 -34 39 C-30.535 38.505 -30.535 38.505 -27 38 C-27 37.34 -27 36.68 -27 36 C-20.65758005 34.84683274 -14.43311296 34.90492937 -8 35 C-8.05220703 33.47632812 -8.05220703 33.47632812 -8.10546875 31.921875 C-8.3108502 23.14181781 -7.69112948 15.45783552 -5 7 C-3.68 6.67 -2.36 6.34 -1 6 C-1.495 4.515 -1.495 4.515 -2 3 C-1.34 2.01 -0.68 1.02 0 0 Z " fill="#5C160D" transform="translate(172,86)"/>
<path d="M0 0 C6.07455747 4.05810686 7.34325755 7.80653336 8.8125 14.8125 C9.11704102 16.10897461 9.11704102 16.10897461 9.42773438 17.43164062 C11.10822157 24.78030576 12.14843273 31.93792019 12.0625 39.5 C12.05347656 40.5415625 12.04445312 41.583125 12.03515625 42.65625 C12.02355469 43.4296875 12.01195312 44.203125 12 45 C9.75006641 45.02707139 7.50003905 45.04642829 5.25 45.0625 C3.99703125 45.07410156 2.7440625 45.08570313 1.453125 45.09765625 C-1.28536501 45.02021027 -3.41880293 44.82780815 -6 44 C-6.25432628 35.87568828 -5.80416556 28.0405834 -4.71142578 20.00219727 C-4.27092924 16.69454719 -4.00328028 13.54451005 -4.02734375 10.203125 C-3.99363814 6.25475344 -2.85910573 2.85910573 0 0 Z " fill="#FCFBFB" transform="translate(180,76)"/>
<path d="M0 0 C0 14.17405515 -9.59374358 30.93260825 -19.25 40.6875 C-24.57783073 46 -24.57783073 46 -27 46 C-26.896875 46.721875 -26.79375 47.44375 -26.6875 48.1875 C-27.12449065 52.12041589 -29.10082197 53.46321923 -32 56 C-32.33528021 49.13701945 -31.432561 44.05976396 -28.9375 37.6875 C-28.62095459 36.85863281 -28.30440918 36.02976563 -27.97827148 35.17578125 C-23.17560999 22.96163446 -15.96919523 9.77854235 -6 1 C-3.3125 0.8125 -3.3125 0.8125 -1 1 C-0.67 0.67 -0.34 0.34 0 0 Z " fill="#944227" transform="translate(89,125)"/>
<path d="M0 0 C1.9375 0.625 1.9375 0.625 4 2 C7.04993619 11.91229262 5.25515052 24.35662677 0.7578125 33.53515625 C-1.48948792 37.30503595 -1.48948792 37.30503595 -3 39 C-3.66 39 -4.32 39 -5 39 C-5 40.32 -5 41.64 -5 43 C-5.66 43 -6.32 43 -7 43 C-7.061875 43.61875 -7.12375 44.2375 -7.1875 44.875 C-8 47 -8 47 -10.5625 48.25 C-11.366875 48.4975 -12.17125 48.745 -13 49 C-13.33 48.67 -13.66 48.34 -14 48 C-14.66 48.66 -15.32 49.32 -16 50 C-16.89067961 47.04832921 -17.3015078 45.6008923 -15.890625 42.7890625 C-15.07851562 41.71785156 -15.07851562 41.71785156 -14.25 40.625 C-12.21563183 37.80890703 -10.527638 35.23402118 -9.25 32 C-8 29 -8 29 -6 28 C-3.8124877 20.56873813 -2.69076166 12.93145545 -2.30859375 5.20703125 C-2 3 -2 3 0 0 Z " fill="#5E1C11" transform="translate(258,153)"/>
<path d="M0 0 C0.99 0.33 1.98 0.66 3 1 C4.05393887 9.51941879 3.79255043 17.27050344 2.5625 25.75 C2.41490234 26.84054688 2.26730469 27.93109375 2.11523438 29.0546875 C1.75489506 31.70492505 1.38305551 34.35296764 1 37 C-1.37507855 37.02719556 -3.74983964 37.04693247 -6.125 37.0625 C-7.12273437 37.07506836 -7.12273437 37.07506836 -8.140625 37.08789062 C-12.20681354 37.10782292 -16.0120092 36.78890161 -20 36 C-20 35.67 -20 35.34 -20 35 C-16.04 35 -12.08 35 -8 35 C-8.03480469 33.98421875 -8.06960937 32.9684375 -8.10546875 31.921875 C-8.3108502 23.14181781 -7.69112948 15.45783552 -5 7 C-3.68 6.67 -2.36 6.34 -1 6 C-1.33 5.01 -1.66 4.02 -2 3 C-1.34 2.01 -0.68 1.02 0 0 Z " fill="#5E1A0F" transform="translate(172,86)"/>
<path d="M0 0 C6.86236446 1.25842787 14.39741002 0.95020466 21.2890625 -0.0625 C24.59025204 -0.4826514 26.53037748 -0.139237 29.7265625 0.5 C32.42671878 0.30242759 35.04630801 -0.09114762 37.7265625 -0.5 C37.7265625 1.5 37.7265625 1.5 36.49804688 3.09521484 C34.31430769 4.82691761 33.14444229 4.90465724 30.3828125 4.9765625 C29.54878906 5.0075 28.71476562 5.0384375 27.85546875 5.0703125 C26.55416016 5.09738281 26.55416016 5.09738281 25.2265625 5.125 C23.50770152 5.17608056 21.78893905 5.23062388 20.0703125 5.2890625 C19.30912109 5.30662598 18.54792969 5.32418945 17.76367188 5.34228516 C15.52414786 5.43299627 15.52414786 5.43299627 12.7265625 6.5 C11.05868202 6.17279428 9.39222066 5.83833681 7.7265625 5.5 C4.1799137 5.47126558 0.6468596 5.56464717 -2.8984375 5.66015625 C-6.18811287 5.50404897 -8.33254016 4.92031974 -11.2734375 3.5 C-10.9434375 2.51 -10.6134375 1.52 -10.2734375 0.5 C-6.97890526 -1.14726612 -3.54425533 -0.77949258 0 0 Z " fill="#954227" transform="translate(158.2734375,234.5)"/>
<path d="M0 0 C0 10.58779804 -6.78716178 25.48857821 -13 34 C-15.17578125 35.77734375 -15.17578125 35.77734375 -17 37 C-15.87548273 34.0280615 -14.77706209 31.66559313 -13 29 C-12.83286431 26.37468476 -12.83286431 26.37468476 -13 24 C-12.01 24 -11.02 24 -10 24 C-9.32741333 21.66836622 -8.66152556 19.3347961 -8 17 C-7.7525 16.2575 -7.505 15.515 -7.25 14.75 C-6.75158623 12.65025956 -6.75158623 12.65025956 -9 10 C-9.61875 10.825 -10.2375 11.65 -10.875 12.5 C-11.57625 13.325 -12.2775 14.15 -13 15 C-13.66 15 -14.32 15 -15 15 C-15.144375 15.61875 -15.28875 16.2375 -15.4375 16.875 C-16 19 -16 19 -17 21 C-17.66 21 -18.32 21 -19 21 C-19.99 23.97 -20.98 26.94 -22 30 C-22.99 30 -23.98 30 -25 30 C-23.48744689 24.21889212 -20.49872981 19.81826075 -17.1875 14.9375 C-16.40536133 13.75317383 -16.40536133 13.75317383 -15.60742188 12.54492188 C-12.73278123 8.26346584 -9.92911363 4.36493321 -6 1 C-3.25 0.75 -3.25 0.75 -1 1 C-0.67 0.67 -0.34 0.34 0 0 Z " fill="#792D1C" transform="translate(89,125)"/>
<path d="M0 0 C5.31714869 2.0832393 7.50195318 4.62738245 9.8125 9.6875 C10.11019287 10.31527344 10.40788574 10.94304687 10.71459961 11.58984375 C13.37303598 17.41029363 14.64809205 21.75953977 13.375 28.125 C11.14658582 32.78441146 8.34316054 36.10455964 4 39 C0.62514687 39 -1.89584181 38.91967291 -4.56640625 36.6953125 C-6.88008308 34.0454604 -8 32.57449447 -8 29 C-7.34 29 -6.68 29 -6 29 C-6 29.66 -6 30.32 -6 31 C-1.22426677 33.61895048 2.84434881 32.83119431 8 32 C10.54641585 24.36075244 9.11764268 15.33154184 5.625 8.1875 C4.01368383 5.90725403 4.01368383 5.90725403 1.8125 3.8125 C0.9153125 2.9153125 0.9153125 2.9153125 0 2 C0 1.34 0 0.68 0 0 Z " fill="#5F180E" transform="translate(131,191)"/>
<path d="M0 0 C2.3431213 0.25561323 4.67843403 0.59270772 7 1 C7.33 1.66 7.66 2.32 8 3 C8.99 3.66 9.98 4.32 11 5 C12.1875 7.125 12.1875 7.125 13 9 C13.99 9 14.98 9 16 9 C16 9.66 16 10.32 16 11 C15.34 11 14.68 11 14 11 C16.1385485 13.1385485 17.13275314 13.42655063 20 14 C20 15.32 20 16.64 20 18 C19.34 18.33 18.68 18.66 18 19 C18.33 19.99 18.66 20.98 19 22 C16.69 21.34 14.38 20.68 12 20 C12 18.02 12 16.04 12 14 C10.89785156 14.14695313 10.89785156 14.14695313 9.7734375 14.296875 C7 14 7 14 4.7265625 11.953125 C4.03304687 11.06109375 3.33953125 10.1690625 2.625 9.25 C1.91601562 8.36828125 1.20703125 7.4865625 0.4765625 6.578125 C-1 4 -1 4 -0.7265625 1.671875 C-0.48679687 1.12015625 -0.24703125 0.5684375 0 0 Z " fill="#621B11" transform="translate(110,198)"/>
<path d="M0 0 C0.625 1.8125 0.625 1.8125 1 4 C0.01 5.485 0.01 5.485 -1 7 C-1.66 7 -2.32 7 -3 7 C-3 8.32 -3 9.64 -3 11 C-3.99 11.33 -4.98 11.66 -6 12 C-2.99740483 12.33218192 -2.99740483 12.33218192 -1.3125 10.5 C-0.879375 10.005 -0.44625 9.51 0 9 C0.66 9.33 1.32 9.66 2 10 C0.71451591 11.33929505 -0.57858155 12.67128643 -1.875 14 C-2.59429687 14.7425 -3.31359375 15.485 -4.0546875 16.25 C-6 18 -6 18 -8 18 C-7.896875 18.721875 -7.79375 19.44375 -7.6875 20.1875 C-8.12449065 24.12041589 -10.10082197 25.46321923 -13 28 C-13.71784585 19.67298815 -11.53784568 12.50421915 -8 5 C-5 3 -5 3 -2 3 C-1.34 2.01 -0.68 1.02 0 0 Z " fill="#7D2F1C" transform="translate(70,153)"/>
<path d="M0 0 C0.94359375 -0.00515625 1.8871875 -0.0103125 2.859375 -0.015625 C5.25 0.25 5.25 0.25 7.25 2.25 C-3.41315629 7.2261396 -16.19396527 7.43944319 -27.75 7.25 C-27.42 5.93 -27.09 4.61 -26.75 3.25 C-25.73679688 3.20101562 -24.72359375 3.15203125 -23.6796875 3.1015625 C-22.32810089 3.02647436 -20.97653962 2.95092919 -19.625 2.875 C-18.95984375 2.8440625 -18.2946875 2.813125 -17.609375 2.78125 C-11.47336268 2.4203081 -6.15062259 -0.03398134 0 0 Z " fill="#944126" transform="translate(201.75,220.75)"/>
<path d="M0 0 C0.66 0.99 1.32 1.98 2 3 C4.9502491 4.31685277 4.9502491 4.31685277 8 5 C8.66 4.67 9.32 4.34 10 4 C12 6 12 6 13 9 C12.113125 8.79375 11.22625 8.5875 10.3125 8.375 C7.06897041 7.72813493 7.06897041 7.72813493 4.5625 9.0625 C0.93114704 10.39104377 -1.33201372 9.0568774 -5 8 C-7.72894667 8.10915787 -10.29245329 8.56329892 -13 9 C-14.66630509 9.03471469 -16.33414654 9.05205792 -18 9 C-18.33 7.35 -18.66 5.7 -19 4 C-12.8894576 3.88730557 -7.04829486 4.10395632 -1 5 C-0.67 3.35 -0.34 1.7 0 0 Z " fill="#903F25" transform="translate(198,153)"/>
<path d="M0 0 C0 0.66 0 1.32 0 2 C0.66 2.33 1.32 2.66 2 3 C0.14375 2.9690625 0.14375 2.9690625 -1.75 2.9375 C-4.69066097 2.9375 -7.17736072 3.1240085 -10 4 C-13.61124868 4.84823803 -16.91901604 5.10844195 -20.625 5.0625 C-21.56601563 5.05347656 -22.50703125 5.04445312 -23.4765625 5.03515625 C-24.30929688 5.02355469 -25.14203125 5.01195312 -26 5 C-26.99 5 -27.98 5 -29 5 C-29.33 4.34 -29.66 3.68 -30 3 C-32.02463255 2.34786708 -32.02463255 2.34786708 -34 2 C-33.67 1.34 -33.34 0.68 -33 0 C-17 0 -17 0 -14.59765625 0.03515625 C-10.24123568 0.08214384 -3.68239907 -1.84119954 0 0 Z " fill="#873720" transform="translate(208,167)"/>
<path d="M0 0 C1.58206057 0.00667536 3.16410534 0.0186375 4.74609375 0.03515625 C5.55240234 0.03966797 6.35871094 0.04417969 7.18945312 0.04882812 C9.18753131 0.06065107 11.18557158 0.07858711 13.18359375 0.09765625 C13.84359375 1.74765625 14.50359375 3.39765625 15.18359375 5.09765625 C14.18359375 6.09765625 14.18359375 6.09765625 12.23413086 6.21118164 C11.40147705 6.20594482 10.56882324 6.20070801 9.7109375 6.1953125 C8.81181641 6.19208984 7.91269531 6.18886719 6.98632812 6.18554688 C6.04080078 6.17716797 5.09527344 6.16878906 4.12109375 6.16015625 C3.17169922 6.15564453 2.22230469 6.15113281 1.24414062 6.14648438 C-1.1094369 6.13465735 -3.46289102 6.1181765 -5.81640625 6.09765625 C-4.74374226 0.12138542 -4.74374226 0.12138542 0 0 Z " fill="#601B12" transform="translate(207.81640625,122.90234375)"/>
<path d="M0 0 C0.66 0.33 1.32 0.66 2 1 C2 1.66 2 2.32 2 3 C2.66 3 3.32 3 4 3 C3.67 3.99 3.34 4.98 3 6 C2.01 6 1.02 6 0 6 C0 7.32 0 8.64 0 10 C-0.30404678 11.67225729 -0.63128912 13.34080104 -1 15 C-2.32 14.67 -3.64 14.34 -5 14 C-5.33 14.99 -5.66 15.98 -6 17 C-6 13.7 -6 10.4 -6 7 C-6.99 7.66 -7.98 8.32 -9 9 C-8.67 9.66 -8.34 10.32 -8 11 C-9.32 11 -10.64 11 -12 11 C-12.25 8.1875 -12.25 8.1875 -12 5 C-10.125 3.125 -10.125 3.125 -8 2 C-7.34 2 -6.68 2 -6 2 C-5.34 2.66 -4.68 3.32 -4 4 C-3.34 4 -2.68 4 -2 4 C-2 3.34 -2 2.68 -2 2 C-1.34 2 -0.68 2 0 2 C0 1.34 0 0.68 0 0 Z " fill="#782B19" transform="translate(171,132)"/>
<path d="M0 0 C1.46489049 0.56666546 2.92178003 1.15404228 4.375 1.75 C5.18710938 2.07484375 5.99921875 2.3996875 6.8359375 2.734375 C9.36637458 4.21426961 9.89696974 5.34318192 11 8 C11.53625 8.515625 12.0725 9.03125 12.625 9.5625 C14 11 14 11 14 14 C9.80228137 14.96197719 9.80228137 14.96197719 7 14 C3.77568029 10.68734277 1.13687251 7.10160807 -1 3 C-0.67 2.01 -0.34 1.02 0 0 Z " fill="#682116" transform="translate(99,183)"/>
<path d="M0 0 C3.19902639 -0.08886184 5.92677456 0.08941469 9 1 C8.67 2.32 8.34 3.64 8 5 C8.99 5.33 9.98 5.66 11 6 C11 6.99 11 7.98 11 9 C11.99 9 12.98 9 14 9 C17 11 17 11 17.6875 13.625 C17.790625 14.40875 17.89375 15.1925 18 16 C17.34 16.33 16.68 16.66 16 17 C16 16.34 16 15.68 16 15 C14.68 14.67 13.36 14.34 12 14 C12 13.34 12 12.68 12 12 C11.195625 11.7525 10.39125 11.505 9.5625 11.25 C8.716875 10.8375 7.87125 10.425 7 10 C6.3125 7.9375 6.3125 7.9375 6 6 C5.34 5.67 4.68 5.34 4 5 C4 4.34 4 3.68 4 3 C2.35 3 0.7 3 -1 3 C-0.67 2.01 -0.34 1.02 0 0 Z " fill="#84351F" transform="translate(108,176)"/>
<path d="M0 0 C1.32 0.33 2.64 0.66 4 1 C4.625 2.875 4.625 2.875 5 5 C4.34 5.66 3.68 6.32 3 7 C2.67 7.66 2.34 8.32 2 9 C1.01 9 0.02 9 -1 9 C-1.33 8.34 -1.66 7.68 -2 7 C-3.0209375 7.061875 -3.0209375 7.061875 -4.0625 7.125 C-7.59924168 6.97450035 -10.63323033 6.05624147 -14 5 C-12.68 3.68 -11.36 2.36 -10 1 C-8.63875 1.495 -8.63875 1.495 -7.25 2 C-3.92954193 3.19605723 -3.92954193 3.19605723 0 3 C0 2.01 0 1.02 0 0 Z " fill="#84341E" transform="translate(155,151)"/>
<path d="M0 0 C0.99 0.99 1.98 1.98 3 3 C2.34 3.66 1.68 4.32 1 5 C-0.27410494 10.96059526 -0.3753258 17.07551961 1 23 C2.92064793 24.5899433 2.92064793 24.5899433 5 25 C5 25.33 5 25.66 5 26 C2.95840905 26.0272616 0.91671037 26.04651345 -1.125 26.0625 C-2.26195312 26.07410156 -3.39890625 26.08570312 -4.5703125 26.09765625 C-7.8129156 26.005327 -10.81932612 25.61389906 -14 25 C-14 24.67 -14 24.34 -14 24 C-10.04 24 -6.08 24 -2 24 C-2.02320313 22.9378125 -2.04640625 21.875625 -2.0703125 20.78125 C-2.2810946 6.84328379 -2.2810946 6.84328379 0 0 Z " fill="#7E3728" transform="translate(166,97)"/>
<path d="M0 0 C1.32 0 2.64 0 4 0 C3.80864497 10.90723652 3.80864497 10.90723652 0.6875 15.125 C-1.50870308 16.65723471 -3.52364252 17.99111362 -6 19 C-5.625 17.0625 -5.625 17.0625 -5 15 C-4.34 14.67 -3.68 14.34 -3 14 C-2.37147066 11.66752185 -1.84464754 9.30708533 -1.375 6.9375 C-0.98441406 5.00197266 -0.98441406 5.00197266 -0.5859375 3.02734375 C-0.39257812 2.02832031 -0.19921875 1.02929688 0 0 Z " fill="#58291C" transform="translate(255,167)"/>
<path d="M0 0 C1 2 1 2 2 4 C5.05908413 4.81584568 5.05908413 4.81584568 8 5 C8 5.66 8 6.32 8 7 C4.16904304 8.86075052 2.09644494 9.07801183 -2 8 C-2.99 8 -3.98 8 -5 8 C-5.12375 7.195625 -5.2475 6.39125 -5.375 5.5625 C-5.684375 4.2940625 -5.684375 4.2940625 -6 3 C-6.66 2.67 -7.32 2.34 -8 2 C-8 1.34 -8 0.68 -8 0 C-5.04063954 -1.47968023 -3.13239866 -0.84835797 0 0 Z " fill="#954327" transform="translate(170,153)"/>
<path d="M0 0 C0.66 0.33 1.32 0.66 2 1 C0.71451591 2.33929505 -0.57858155 3.67128643 -1.875 5 C-2.59429687 5.7425 -3.31359375 6.485 -4.0546875 7.25 C-6 9 -6 9 -8 9 C-7.896875 9.721875 -7.79375 10.44375 -7.6875 11.1875 C-8.12449065 15.12041589 -10.10082197 16.46321923 -13 19 C-13.3690205 9.58997722 -13.3690205 9.58997722 -11 5 C-10.67 5.66 -10.34 6.32 -10 7 C-8.35 6.67 -6.7 6.34 -5 6 C-5 5.34 -5 4.68 -5 4 C-3.37373596 2.61767557 -1.7074998 1.28062485 0 0 Z " fill="#772A19" transform="translate(70,162)"/>
<path d="M0 0 C0.99 0.33 1.98 0.66 3 1 C3.33 3.97 3.66 6.94 4 10 C1 11 1 11 -1 11 C-1.99 11.495 -1.99 11.495 -3 12 C-3.66 11.67 -4.32 11.34 -5 11 C-4.67 9.35 -4.34 7.7 -4 6 C-3.01 6 -2.02 6 -1 6 C-1.33 5.01 -1.66 4.02 -2 3 C-1.34 2.01 -0.68 1.02 0 0 Z " fill="#631E12" transform="translate(172,86)"/>
<path d="M0 0 C0.66 0.99 1.32 1.98 2 3 C4.9502491 4.31685277 4.9502491 4.31685277 8 5 C8.66 4.67 9.32 4.34 10 4 C12 6 12 6 13 9 C12.113125 8.79375 11.22625 8.5875 10.3125 8.375 C7.0452718 7.72418219 7.0452718 7.72418219 4.4375 9.125 C2 10 2 10 -0.8125 8.75 C-1.534375 8.1725 -2.25625 7.595 -3 7 C-3 6.34 -3 5.68 -3 5 C-2.34 5 -1.68 5 -1 5 C-0.67 3.35 -0.34 1.7 0 0 Z " fill="#84341E" transform="translate(198,153)"/>
<path d="M0 0 C1.85274014 3.12649899 2.37198336 5.37316225 2 9 C1.01 10.485 1.01 10.485 0 12 C-0.45772063 14.73872955 -0.45772063 14.73872955 -0.625 17.6875 C-0.69976562 18.68136719 -0.77453125 19.67523438 -0.8515625 20.69921875 C-0.90054687 21.45847656 -0.94953125 22.21773437 -1 23 C-3.33404599 19.33875138 -3.17550308 16.26699615 -3.0625 12 C-2.8879514 6.41934738 -2.8879514 6.41934738 -4 1 C-2 0 -2 0 0 0 Z " fill="#672318" transform="translate(257,144)"/>
<path d="M0 0 C0.89310101 2.67930304 1.44761501 5.23807505 2 8 C2.33 8.99 2.66 9.98 3 11 C2.34 11 1.68 11 1 11 C0.67 12.32 0.34 13.64 0 15 C0 14.34 0 13.68 0 13 C-0.99 12.67 -1.98 12.34 -3 12 C-3.6875 9.9375 -3.6875 9.9375 -4 8 C-4.66 8 -5.32 8 -6 8 C-6 7.01 -6 6.02 -6 5 C-5.34 5 -4.68 5 -4 5 C-3.67 4.34 -3.34 3.68 -3 3 C-3 3.66 -3 4.32 -3 5 C-2.34 5 -1.68 5 -1 5 C-0.67 3.35 -0.34 1.7 0 0 Z " fill="#86361F" transform="translate(158,161)"/>
<path d="M0 0 C0.99 0.33 1.98 0.66 3 1 C2.979375 1.78375 2.95875 2.5675 2.9375 3.375 C2.81315937 5.98114961 2.81315937 5.98114961 4 8 C3.01 8.99 2.02 9.98 1 11 C2.32 11 3.64 11 5 11 C3.80100302 14.0831351 2.52299523 17.06279492 1 20 C1.66 20.33 2.32 20.66 3 21 C2.01 21 1.02 21 0 21 C0.020625 20.236875 0.04125 19.47375 0.0625 18.6875 C0.12942841 15.89814214 0.12942841 15.89814214 -1 13 C-1.15472001 9.90559983 -0.99112088 7.97336263 0 5 C0.03874921 3.33378384 0.0450286 1.66605828 0 0 Z " fill="#7E2F1B" transform="translate(155,201)"/>
<path d="M0 0 C0.33 0 0.66 0 1 0 C1.33 1.65 1.66 3.3 2 5 C2.99 5 3.98 5 5 5 C5.33 5.66 5.66 6.32 6 7 C6.66 7.66 7.32 8.32 8 9 C6.68 9.33 5.36 9.66 4 10 C4 11.32 4 12.64 4 14 C2.68 14.33 1.36 14.66 0 15 C0 14.01 0 13.02 0 12 C-0.99 11.67 -1.98 11.34 -3 11 C-2.484375 10.236875 -1.96875 9.47375 -1.4375 8.6875 C-0.7259375 7.3571875 -0.7259375 7.3571875 0 6 C-0.33 5.01 -0.66 4.02 -1 3 C-0.67 2.01 -0.34 1.02 0 0 Z " fill="#84341E" transform="translate(156,179)"/>
<path d="M0 0 C0.33 0.99 0.66 1.98 1 3 C6.94 3.33 12.88 3.66 19 4 C19.33 3.34 19.66 2.68 20 2 C20 2.99 20 3.98 20 5 C13.02420757 6.7958955 7.11778518 7.12067256 0 6 C0 4.02 0 2.04 0 0 Z " fill="#803C2E" transform="translate(173,117)"/>
<path d="M0 0 C0.66 0 1.32 0 2 0 C2.45375 0.474375 2.9075 0.94875 3.375 1.4375 C5.22977487 3.22093737 6.50135592 3.5691993 9 4 C9.33 5.32 9.66 6.64 10 8 C9.01 8 8.02 8 7 8 C7 7.01 7 6.02 7 5 C6.443125 5.33 5.88625 5.66 5.3125 6 C2.69715478 7.1309601 0.8193354 7.15662974 -2 7 C-2.33 6.34 -2.66 5.68 -3 5 C-1.6875 2.375 -1.6875 2.375 0 0 Z " fill="#84341F" transform="translate(156,223)"/>
<path d="M0 0 C4 0 4 0 7 1 C9.06618749 0.90731495 9.06618749 0.90731495 11.1875 0.5625 C12.445625 0.376875 13.70375 0.19125 15 0 C15 2 15 2 13.78125 3.59375 C10.98941811 5.79782781 8.54325203 5.52714152 5.09765625 5.4375 C3 5 3 5 0.9375 2.5 C0.628125 1.675 0.31875 0.85 0 0 Z " fill="#8B3A22" transform="translate(181,234)"/>
<path d="M0 0 C1.65 0 3.3 0 5 0 C5 0.99 5 1.98 5 3 C6.32 3.33 7.64 3.66 9 4 C9 4.66 9 5.32 9 6 C8.01 6 7.02 6 6 6 C5.67 7.32 5.34 8.64 5 10 C5 9.01 5 8.02 5 7 C4.01 7.33 3.02 7.66 2 8 C-0.1875 7.0625 -0.1875 7.0625 -2 6 C-1.34 4.02 -0.68 2.04 0 0 Z " fill="#7F301C" transform="translate(173,151)"/>
<path d="M0 0 C2.86207152 1.28299758 5.0245088 2.530636 7 5 C7 5.99 7 6.98 7 8 C4.69 8 2.38 8 0 8 C-0.66 6.68 -1.32 5.36 -2 4 C-1.34 4 -0.68 4 0 4 C-0.33 3.01 -0.66 2.02 -1 1 C-0.67 0.67 -0.34 0.34 0 0 Z " fill="#601A10" transform="translate(106,189)"/>
<path d="M0 0 C0.33 0.99 0.66 1.98 1 3 C1.99 3.33 2.98 3.66 4 4 C1.1528258 5.93607846 -0.15417196 5.98954766 -3.6875 5.75 C-4.780625 5.5025 -5.87375 5.255 -7 5 C-7.33 4.34 -7.66 3.68 -8 3 C-5.53387212 -0.1151089 -3.89156016 -0.31553191 0 0 Z " fill="#893821" transform="translate(155,234)"/>
<path d="M0 0 C2 2 2 2 2.3125 4.9375 C2.19142829 10.1325771 0.49952795 15.06405382 -1 20 C-1.66 19.67 -2.32 19.34 -3 19 C-3 17.68 -3 16.36 -3 15 C-2.34 15 -1.68 15 -1 15 C-1.185625 14.236875 -1.37125 13.47375 -1.5625 12.6875 C-2 10 -2 10 -1 7 C-0.34 7 0.32 7 1 7 C0.67 4.69 0.34 2.38 0 0 Z " fill="#AD9B94" transform="translate(253,163)"/>
<path d="M0 0 C0.99 0 1.98 0 3 0 C3 0.66 3 1.32 3 2 C3.66 2 4.32 2 5 2 C5.33 3.32 5.66 4.64 6 6 C5.01 6.33 4.02 6.66 3 7 C2.67 9.31 2.34 11.62 2 14 C1.34 14 0.68 14 0 14 C-0.33 11.36 -0.66 8.72 -1 6 C-0.01 6 0.98 6 2 6 C2 4.35 2 2.7 2 1 C1.34 0.67 0.68 0.34 0 0 Z " fill="#893921" transform="translate(167,165)"/>
<path d="M0 0 C0.99 0.33 1.98 0.66 3 1 C3 1.99 3 2.98 3 4 C0.69 5.32 -1.62 6.64 -4 8 C-4.33 6.02 -4.66 4.04 -5 2 C-3.35 1.67 -1.7 1.34 0 1 C0 0.67 0 0.34 0 0 Z " fill="#6A2013" transform="translate(218,168)"/>
<path d="M0 0 C0.625 1.8125 0.625 1.8125 1 4 C0.01 5.485 0.01 5.485 -1 7 C-1.66 7 -2.32 7 -3 7 C-3 8.32 -3 9.64 -3 11 C-3.99 10.67 -4.98 10.34 -6 10 C-6.6875 7.9375 -6.6875 7.9375 -7 6 C-6.21625 5.566875 -5.4325 5.13375 -4.625 4.6875 C-1.78301625 3.10779753 -1.78301625 3.10779753 0 0 Z " fill="#873720" transform="translate(70,153)"/>
<path d="M0 0 C0.33 2.31 0.66 4.62 1 7 C0.67 6.34 0.34 5.68 0 5 C-0.99 5.66 -1.98 6.32 -3 7 C-2.67 7.66 -2.34 8.32 -2 9 C-3.32 9 -4.64 9 -6 9 C-6.25 6.1875 -6.25 6.1875 -6 3 C-3.95959224 0.95959224 -2.91674756 0 0 0 Z " fill="#85351F" transform="translate(165,134)"/>
<path d="M0 0 C0 4.10746566 -1.63960436 5.19754861 -4.375 8.1875 C-5.18710938 9.08855469 -5.99921875 9.98960937 -6.8359375 10.91796875 C-9 13 -9 13 -11 13 C-10.45677238 9.205764 -8.9784232 7.7689044 -6.0625 5.375 C-5.35222656 4.78460938 -4.64195313 4.19421875 -3.91015625 3.5859375 C-3.27980469 3.06257812 -2.64945313 2.53921875 -2 2 C-1.34 1.34 -0.68 0.68 0 0 Z " fill="#651C10" transform="translate(72,162)"/>
<path d="M0 0 C0.99 0.99 1.98 1.98 3 3 C2.34 3.66 1.68 4.32 1 5 C0.57315924 7.22972255 0.57315924 7.22972255 0.4375 9.75 C0.12939224 13.54632774 -0.3092222 17.25006338 -1 21 C-1.33 21 -1.66 21 -2 21 C-2.20177072 13.64657821 -2.21211746 7.05112439 0 0 Z " fill="#782D1E" transform="translate(166,97)"/>
<path d="M0 0 C2.31 0.66 4.62 1.32 7 2 C6.67 2.99 6.34 3.98 6 5 C3.36 5 0.72 5 -2 5 C-1.34 3.35 -0.68 1.7 0 0 Z " fill="#893921" transform="translate(198,233)"/>
<path d="M0 0 C0 0.33 0 0.66 0 1 C-1.41377782 1.36552803 -2.83120576 1.71695495 -4.25 2.0625 C-5.03890625 2.25972656 -5.8278125 2.45695313 -6.640625 2.66015625 C-9.10394822 3.01497267 -10.65604132 2.76877544 -13 2 C-12.67 1.01 -12.34 0.02 -12 -1 C-3.42857143 -2.42857143 -3.42857143 -2.42857143 0 0 Z " fill="#82331E" transform="translate(218,220)"/>
<path d="M0 0 C0 1.32 0 2.64 0 4 C-0.99 4 -1.98 4 -3 4 C-3 5.32 -3 6.64 -3 8 C-3.66 8 -4.32 8 -5 8 C-5.12375 7.195625 -5.2475 6.39125 -5.375 5.5625 C-5.684375 4.2940625 -5.684375 4.2940625 -6 3 C-6.66 2.67 -7.32 2.34 -8 2 C-8 1.34 -8 0.68 -8 0 C-5.13822943 -1.43088528 -3.06624227 -0.59991697 0 0 Z " fill="#7E2F1B" transform="translate(170,153)"/>
<path d="M0 0 C3 0 3 0 5 1 C4.01 3.31 3.02 5.62 2 8 C1.01 7.67 0.02 7.34 -1 7 C-0.67 6.34 -0.34 5.68 0 5 C-0.66 4.67 -1.32 4.34 -2 4 C-1.34 2.68 -0.68 1.36 0 0 Z " fill="#7E3F34" transform="translate(244,200)"/>
<path d="M0 0 C0.99 0.33 1.98 0.66 3 1 C2.979375 1.78375 2.95875 2.5675 2.9375 3.375 C2.81315937 5.98114961 2.81315937 5.98114961 4 8 C3.01 8.495 3.01 8.495 2 9 C1.34 9.99 0.68 10.98 0 12 C-0.93423645 8.98968256 -1.04449911 8.13349732 0 5 C0.03874921 3.33378384 0.0450286 1.66605828 0 0 Z " fill="#873720" transform="translate(155,201)"/>
<path d="M0 0 C2.15377564 2.62198774 3.40072174 4.64404172 4 8 C2.68 8 1.36 8 0 8 C-0.33 7.67 -0.66 7.34 -1 7 C-0.71269945 4.66055264 -0.38063221 2.3260857 0 0 Z " fill="#6A2318" transform="translate(240,199)"/>
<path d="M0 0 C0.66 0.33 1.32 0.66 2 1 C2 1.66 2 2.32 2 3 C2.66 3 3.32 3 4 3 C3.67 3.99 3.34 4.98 3 6 C2.01 6 1.02 6 0 6 C-0.99 6.33 -1.98 6.66 -3 7 C-3.33 6.01 -3.66 5.02 -4 4 C-3.34 4 -2.68 4 -2 4 C-2 3.34 -2 2.68 -2 2 C-1.34 2 -0.68 2 0 2 C0 1.34 0 0.68 0 0 Z " fill="#81321D" transform="translate(171,132)"/>
<path d="M0 0 C4.875 1.75 4.875 1.75 6 4 C4.35 3.67 2.7 3.34 1 3 C1 4.32 1 5.64 1 7 C0.34 7 -0.32 7 -1 7 C-1.04254356 5.00045254 -1.04080783 2.99958364 -1 1 C-0.67 0.67 -0.34 0.34 0 0 Z " fill="#691F12" transform="translate(218,202)"/>
<path d="M0 0 C1.65 0 3.3 0 5 0 C5.33 1.65 5.66 3.3 6 5 C4.35 4.67 2.7 4.34 1 4 C0.67 2.68 0.34 1.36 0 0 Z " fill="#54170C" transform="translate(246,191)"/>
<path d="M0 0 C6.75 2.75 6.75 2.75 9 5 C7.375 5.75 7.375 5.75 5 6 C1.75 4.0625 1.75 4.0625 -1 2 C-0.67 1.34 -0.34 0.68 0 0 Z " fill="#7A3D33" transform="translate(222,124)"/>
<path d="M0 0 C0 2 0 2 -1.3125 3.625 C-3 5 -3 5 -6 5 C-6.33 3.68 -6.66 2.36 -7 1 C-4.53721199 -0.231394 -2.7204945 -0.07159196 0 0 Z " fill="#924026" transform="translate(196,234)"/>
<path d="M0 0 C0.99 0.66 1.98 1.32 3 2 C1.35 2.33 -0.3 2.66 -2 3 C-2 2.34 -2 1.68 -2 1 C-1.34 0.67 -0.68 0.34 0 0 Z M-4 2 C-2.5 3.375 -2.5 3.375 -1 5 C-1 5.66 -1 6.32 -1 7 C-2.32 7.33 -3.64 7.66 -5 8 C-4.67 6.02 -4.34 4.04 -4 2 Z " fill="#8D3B23" transform="translate(161,186)"/>
<path d="M0 0 C1.65 0.33 3.3 0.66 5 1 C5 2.32 5 3.64 5 5 C2.83125748 4.49396008 1.00032373 4.00016187 -1 3 C-0.67 2.01 -0.34 1.02 0 0 Z " fill="#671E11" transform="translate(214,160)"/>
<path d="M0 0 C0.66 0.99 1.32 1.98 2 3 C1.125 5.6875 1.125 5.6875 0 8 C-0.66 8 -1.32 8 -2 8 C-2.125 5.125 -2.125 5.125 -2 2 C-1.34 1.34 -0.68 0.68 0 0 Z " fill="#8D3B23" transform="translate(165,216)"/>
<path d="M0 0 C0.99 0 1.98 0 3 0 C2.67 4.29 2.34 8.58 2 13 C0.12815629 9.25631258 -0.23999767 8.1599209 -0.125 4.25 C-0.10695312 3.45078125 -0.08890625 2.6515625 -0.0703125 1.828125 C-0.04710937 1.22484375 -0.02390625 0.6215625 0 0 Z " fill="#6C342B" transform="translate(254,154)"/>
<path d="M0 0 C1 3 1 3 0.0625 5.1875 C-0.4634375 6.0846875 -0.4634375 6.0846875 -1 7 C-1.99 6.67 -2.98 6.34 -4 6 C-3.67 4.68 -3.34 3.36 -3 2 C-2.34 2 -1.68 2 -1 2 C-0.67 1.34 -0.34 0.68 0 0 Z " fill="#8D3C23" transform="translate(169,201)"/>
<path d="M0 0 C1.65 1.65 3.3 3.3 5 5 C3.35 5.33 1.7 5.66 0 6 C0 5.34 0 4.68 0 4 C-0.66 3.67 -1.32 3.34 -2 3 C-1.34 2.01 -0.68 1.02 0 0 Z " fill="#823623" transform="translate(103,166)"/>
<path d="M0 0 C0.66 0 1.32 0 2 0 C3.2077558 3.62326739 2.54311128 4.64146369 1 8 C-1 7 -1 7 -2 5 C-1.34 5 -0.68 5 0 5 C0 3.35 0 1.7 0 0 Z " fill="#82331D" transform="translate(173,139)"/>
<path d="M0 0 C1.84765625 0.33984375 1.84765625 0.33984375 4.0625 0.9375 C5.16271484 1.22947266 5.16271484 1.22947266 6.28515625 1.52734375 C7.13400391 1.76130859 7.13400391 1.76130859 8 2 C7.01 2.495 7.01 2.495 6 3 C5.34786708 5.02463255 5.34786708 5.02463255 5 7 C4.7525 6.38125 4.505 5.7625 4.25 5.125 C2.79371361 2.64931313 1.62187494 2.04874998 -1 1 C-0.67 0.67 -0.34 0.34 0 0 Z " fill="#69281F" transform="translate(247,189)"/>
<path d="M0 0 C1.2065625 0.0309375 1.2065625 0.0309375 2.4375 0.0625 C2.7675 1.0525 3.0975 2.0425 3.4375 3.0625 C1.4575 3.3925 -0.5225 3.7225 -2.5625 4.0625 C-2.8925 3.0725 -3.2225 2.0825 -3.5625 1.0625 C-2.5625 0.0625 -2.5625 0.0625 0 0 Z " fill="#7E301B" transform="translate(170.5625,159.9375)"/>
<path d="M0 0 C2.64 0.33 5.28 0.66 8 1 C7.67 1.99 7.34 2.98 7 4 C4.69 3.34 2.38 2.68 0 2 C0 1.34 0 0.68 0 0 Z " fill="#895249" transform="translate(126,246)"/>
<path d="M0 0 C0.66 0.66 1.32 1.32 2 2 C1.625 5.625 1.625 5.625 1 9 C-0.61949011 6.42786866 -1.04408751 5.32330841 -0.625 2.25 C-0.41875 1.5075 -0.2125 0.765 0 0 Z " fill="#D6C6C3" transform="translate(253,147)"/>
</svg>
